<svg version="1.2" baseProfile="tiny-ps" xmlns="http://www.w3.org/2000/svg" viewBox="0 0 1188 927" width="1188" height="927">
	<title>&lt;Group&gt;</title>
	<style>
		tspan { white-space:pre }
		.shp0 { fill: none;stroke: #c370ff;stroke-width: 4.005;stroke-dasharray: 8,8 } 
		.shp1 { fill: #ed4a4a } 
		.shp2 { fill: #993236 } 
		.shp3 { fill: #5b0808 } 
		.shp4 { mix-blend-mode: multiply;fill: #a5acba } 
		.shp5 { fill: #0a1d45 } 
		.shp6 { fill: #f15a24 } 
		.shp7 { fill: #0cba83 } 
		.shp8 { fill: #ed1e79 } 
		.shp9 { fill: #29abe2 } 
		.shp10 { fill: #0059d6 } 
		.shp11 { fill: #e4ebfd } 
		.shp12 { fill: #becbeb } 
		.shp13 { fill: none;stroke: #0068fa;stroke-width: 2.002;stroke-dasharray: 8,8 } 
		.shp14 { fill: #ffffff } 
		.shp15 { fill: #2fcbe0 } 
		.shp16 { fill: #000000 } 
		.shp17 { fill: #fbb03b } 
		.shp18 { fill: #133785 } 
		.shp19 { fill: #103173 } 
		.shp20 { fill: #dce6f2 } 
		.shp21 { fill: #e43438 } 
		.shp22 { fill: #fbbf62 } 
		.shp23 { fill: #a5acba } 
		.shp24 { fill: #ff9129 } 
	</style>
	<g id="&lt;Group&gt;">
		<g id="&lt;Group&gt;">
		</g>
		<g id="&lt;Group&gt;">
			<g id="&lt;Group&gt;">
				<g id="&lt;Group&gt;">
					<path id="&lt;Path&gt;" class="shp0" d="M1060.34 147.78L1060.34 738.51C1060.34 760.59 1042.38 778.56 1020.29 778.56L731.94 778.56" />
					<path id="&lt;Path&gt;" class="shp0" d="M163.23 691.12L163.23 147.78C163.23 125.7 181.2 107.73 203.28 107.73L492.18 107.73" />
				</g>
				<g id="&lt;Group&gt;">
					<g id="&lt;Group&gt;">
						<path id="&lt;Path&gt;" class="shp1" d="M673.35 689.12L550.22 689.12L471.13 897.71L752.45 897.71L673.35 689.12Z" />
						<path id="Forme 1" class="shp1" d="M1136 859" />
						<path id="&lt;Path&gt;" class="shp2" d="M768.35 926.33L455.23 926.33L441.66 897.33L781.91 897.33L768.35 926.33Z" />
						<path id="Forme 2" class="shp3" d="M1204 965" />
						<path id="&lt;Path&gt;" class="shp4" d="M523.77 758.88L728.91 835.64L691.27 736.36L532.31 736.36L523.77 758.88Z" />
					</g>
					<g id="&lt;Group&gt;">
						<path id="&lt;Path&gt;" class="shp1" d="M1020.29 758.54L203.28 758.54C192.22 758.54 183.26 749.57 183.26 738.51L183.26 147.78C183.26 136.72 192.22 127.75 203.28 127.75L1020.29 127.75C1031.35 127.75 1040.32 136.72 1040.32 147.78L1040.32 738.51C1040.32 749.57 1031.35 758.54 1020.29 758.54Z" />
						<path id="&lt;Path&gt;" class="shp5" d="M625.14 152.45C625.14 159.82 619.16 165.8 611.79 165.8C604.42 165.8 598.44 159.82 598.44 152.45C598.44 145.08 604.42 139.1 611.79 139.1C619.16 139.1 625.14 145.08 625.14 152.45Z" />
						<path id="&lt;Path&gt;" class="shp5" d="M231.32 689.12L231.32 175.81L992.26 175.81L992.26 689.12L231.32 689.12Z" />
					</g>
				</g>
				<g id="&lt;Group&gt;">
					<g id="&lt;Group&gt;">
						<g id="&lt;Group&gt;">
							<path id="&lt;Path&gt;" class="shp6" d="M42.65 795.22C42.65 798.89 39.67 801.86 36.01 801.86C32.34 801.86 29.36 798.89 29.36 795.22C29.36 791.55 32.34 788.57 36.01 788.57C39.67 788.57 42.65 791.55 42.65 795.22Z" />
							<path id="&lt;Path&gt;" class="shp6" d="M70.99 795.22C70.99 798.89 68.01 801.86 64.35 801.86C60.68 801.86 57.7 798.89 57.7 795.22C57.7 791.55 60.68 788.57 64.35 788.57C68.01 788.57 70.99 791.55 70.99 795.22Z" />
							<path id="&lt;Path&gt;" class="shp6" d="M99.33 795.22C99.33 798.89 96.35 801.86 92.68 801.86C89.02 801.86 86.04 798.89 86.04 795.22C86.04 791.55 89.02 788.57 92.68 788.57C96.35 788.57 99.33 791.55 99.33 795.22Z" />
							<path id="&lt;Path&gt;" class="shp6" d="M127.67 795.22C127.67 798.89 124.69 801.86 121.02 801.86C117.36 801.86 114.38 798.89 114.38 795.22C114.38 791.55 117.36 788.57 121.02 788.57C124.69 788.57 127.67 791.55 127.67 795.22Z" />
							<path id="&lt;Path&gt;" class="shp6" d="M156.01 795.22C156.01 798.89 153.03 801.86 149.36 801.86C145.69 801.86 142.72 798.89 142.72 795.22C142.72 791.55 145.69 788.57 149.36 788.57C153.03 788.57 156.01 791.55 156.01 795.22Z" />
							<path id="&lt;Path&gt;" class="shp6" d="M184.35 795.22C184.35 798.89 181.37 801.86 177.7 801.86C174.03 801.86 171.06 798.89 171.06 795.22C171.06 791.55 174.03 788.57 177.7 788.57C181.37 788.57 184.35 791.55 184.35 795.22Z" />
							<path id="&lt;Path&gt;" class="shp6" d="M212.69 795.22C212.69 798.89 209.71 801.86 206.04 801.86C202.37 801.86 199.4 798.89 199.4 795.22C199.4 791.55 202.37 788.57 206.04 788.57C209.71 788.57 212.69 791.55 212.69 795.22Z" />
							<path id="&lt;Path&gt;" class="shp6" d="M241.03 795.22C241.03 798.89 238.05 801.86 234.38 801.86C230.71 801.86 227.74 798.89 227.74 795.22C227.74 791.55 230.71 788.57 234.38 788.57C238.05 788.57 241.03 791.55 241.03 795.22Z" />
						</g>
						<g id="&lt;Group&gt;">
							<path id="&lt;Path&gt;" class="shp6" d="M592.48 7.49C592.48 11.16 589.51 14.13 585.84 14.13C582.17 14.13 579.19 11.16 579.19 7.49C579.19 3.82 582.17 0.85 585.84 0.85C589.51 0.85 592.48 3.82 592.48 7.49Z" />
							<path id="&lt;Path&gt;" class="shp6" d="M620.82 7.49C620.82 11.16 617.85 14.13 614.18 14.13C610.51 14.13 607.53 11.16 607.53 7.49C607.53 3.82 610.51 0.85 614.18 0.85C617.85 0.85 620.82 3.82 620.82 7.49Z" />
							<path id="&lt;Path&gt;" class="shp6" d="M649.16 7.49C649.16 11.16 646.19 14.13 642.52 14.13C638.85 14.13 635.87 11.16 635.87 7.49C635.87 3.82 638.85 0.85 642.52 0.85C646.19 0.85 649.16 3.82 649.16 7.49Z" />
							<path id="&lt;Path&gt;" class="shp6" d="M677.5 7.49C677.5 11.16 674.53 14.13 670.86 14.13C667.19 14.13 664.21 11.16 664.21 7.49C664.21 3.82 667.19 0.85 670.86 0.85C674.53 0.85 677.5 3.82 677.5 7.49Z" />
							<path id="&lt;Path&gt;" class="shp6" d="M705.84 7.49C705.84 11.16 702.86 14.13 699.2 14.13C695.53 14.13 692.55 11.16 692.55 7.49C692.55 3.82 695.53 0.85 699.2 0.85C702.86 0.85 705.84 3.82 705.84 7.49Z" />
							<path id="&lt;Path&gt;" class="shp6" d="M734.18 7.49C734.18 11.16 731.2 14.13 727.54 14.13C723.87 14.13 720.89 11.16 720.89 7.49C720.89 3.82 723.87 0.85 727.54 0.85C731.2 0.85 734.18 3.82 734.18 7.49Z" />
							<path id="&lt;Path&gt;" class="shp6" d="M762.52 7.49C762.52 11.16 759.54 14.13 755.87 14.13C752.21 14.13 749.23 11.16 749.23 7.49C749.23 3.82 752.21 0.85 755.87 0.85C759.54 0.85 762.52 3.82 762.52 7.49Z" />
							<path id="&lt;Path&gt;" class="shp6" d="M790.86 7.49C790.86 11.16 787.88 14.13 784.21 14.13C780.55 14.13 777.57 11.16 777.57 7.49C777.57 3.82 780.55 0.85 784.21 0.85C787.88 0.85 790.86 3.82 790.86 7.49Z" />
						</g>
					</g>
					<g id="&lt;Group&gt;">
						<path id="&lt;Path&gt;" class="shp7" d="M1131.24 673.7C1131.24 683.27 1123.49 691.02 1113.93 691.02C1104.37 691.02 1096.62 683.27 1096.62 673.7C1096.62 664.14 1104.37 656.39 1113.93 656.39C1123.49 656.39 1131.24 664.14 1131.24 673.7Z" />
						<path id="&lt;Path&gt;" class="shp8" d="M131.69 114.23C131.69 123.8 123.94 131.55 114.38 131.55C104.82 131.55 97.07 123.8 97.07 114.23C97.07 104.67 104.82 96.92 114.38 96.92C123.94 96.92 131.69 104.67 131.69 114.23Z" />
						<path id="&lt;Path&gt;" class="shp9" d="M392.81 766.51C392.81 776.08 385.06 783.83 375.5 783.83C365.94 783.83 358.19 776.08 358.19 766.51C358.19 756.95 365.94 749.2 375.5 749.2C385.06 749.2 392.81 756.95 392.81 766.51Z" />
					</g>
				</g>
				<g id="&lt;Group&gt;">
					<g id="&lt;Group&gt;">
						<path id="&lt;Path&gt;" class="shp4" d="M745.33 237.73L291.44 237.73C280.38 237.73 271.41 246.69 271.41 257.75L271.41 269.77L271.41 707.64L765.36 707.64L765.36 269.77L765.36 257.75C765.36 246.69 756.39 237.73 745.33 237.73Z" />
						<g id="&lt;Group&gt;">
							<path id="&lt;Path&gt;" class="shp10" d="M745.29 216.53C745.29 205.47 736.32 196.51 725.26 196.51L271.37 196.51C260.31 196.51 251.34 205.47 251.34 216.53L251.34 228.55L745.29 228.55L745.29 216.53Z" />
							<path id="&lt;Path&gt;" class="shp11" d="M251.34 228.55L251.34 666.42L745.29 666.42L745.29 228.55L251.34 228.55Z" />
						</g>
					</g>
					<g id="&lt;Group&gt;">
						<g id="&lt;Group&gt;">
							<path id="&lt;Path&gt;" class="shp12" d="M709.91 282.45L578.75 282.45L578.75 261.92L709.91 261.92L709.91 282.45Z" />
							<path id="&lt;Path&gt;" class="shp12" d="M709.91 318.99L578.75 318.99L578.75 298.46L709.91 298.46L709.91 318.99Z" />
							<path id="&lt;Path&gt;" class="shp12" d="M709.91 355.53L578.75 355.53L578.75 335L709.91 335L709.91 355.53Z" />
							<path id="&lt;Path&gt;" class="shp12" d="M709.91 392.07L578.75 392.07L578.75 371.55L709.91 371.55L709.91 392.07Z" />
							<path id="&lt;Path&gt;" class="shp12" d="M709.91 428.62L578.75 428.62L578.75 408.09L709.91 408.09L709.91 428.62Z" />
						</g>
						<g id="&lt;Group&gt;">
							<path id="&lt;Path&gt;" class="shp13" d="M718.26 652.29L574.08 652.29L574.08 454.05L718.26 454.05L718.26 652.29Z" />
							<g id="&lt;Group&gt;">
								<path id="&lt;Path&gt;" class="shp14" d="M708.07 642.13L584.26 642.13L584.26 464.21L708.07 464.21L708.07 642.13Z" />
								<g id="&lt;Group&gt;">
									<path id="&lt;Path&gt;" class="shp15" d="M695.39 631.65L596.95 631.65L596.95 474.7L695.39 474.7L695.39 631.65Z" />
								</g>
								<g id="&lt;Group&gt;">
									<path id="&lt;Compound Path&gt;" fill-rule="evenodd" class="shp16" d="M640.22 495.63L650.15 495.63L670.62 610.71L661.2 610.71L657.41 587.37L634.4 587.37L630.93 610.71L621.71 610.71L640.22 495.63ZM656.11 579.33L645.51 514.2L645.38 514.2L635.64 579.33L656.11 579.33Z" />
								</g>
							</g>
						</g>
						<g id="&lt;Group&gt;">
							<g id="&lt;Group&gt;">
								<path id="&lt;Path&gt;" class="shp12" d="M549.04 472.69L276.71 472.69L276.71 452.16L549.04 452.16L549.04 472.69Z" />
								<path id="&lt;Path&gt;" class="shp12" d="M549.04 512.91L276.71 512.91L276.71 492.38L549.04 492.38L549.04 512.91Z" />
								<path id="&lt;Path&gt;" class="shp12" d="M439.67 553.13L276.71 553.13L276.71 532.6L439.67 532.6L439.67 553.13Z" />
								<path id="&lt;Path&gt;" class="shp12" d="M405.48 593.35L276.71 593.35L276.71 572.82L405.48 572.82L405.48 593.35Z" />
								<path id="&lt;Path&gt;" class="shp8" d="M477.95 633.57L444.31 633.57L444.31 613.04L477.95 613.04L477.95 633.57Z" />
								<path id="&lt;Path&gt;" class="shp12" d="M429.79 633.57L276.71 633.57L276.71 613.04L429.79 613.04L429.79 633.57Z" />
								<path id="&lt;Path&gt;" class="shp17" d="M518.39 553.13L452.37 553.13L452.37 532.6L518.39 532.6L518.39 553.13Z" />
								<path id="&lt;Path&gt;" class="shp12" d="M549.04 593.35L424.87 593.35L424.87 572.82L549.04 572.82L549.04 593.35Z" />
								<path id="&lt;Path&gt;" class="shp12" d="M549.04 633.57L496.68 633.57L496.68 613.04L549.04 613.04L549.04 633.57Z" />
							</g>
							<g id="&lt;Group&gt;">
								<g id="&lt;Group&gt;">
									<path id="&lt;Path&gt;" class="shp5" d="M530.38 415.77L295.37 415.77L295.37 278.61L530.38 278.61L530.38 415.77Z" />
									<g id="&lt;Group&gt;">
										<path id="&lt;Path&gt;" class="shp18" d="M436.59 330.17L409.92 386.65L368.27 298.46L312.87 415.77L423.68 415.77L423.52 415.44L476.86 415.44L436.59 330.17Z" />
										<path id="&lt;Path&gt;" class="shp17" d="M492.18 293.6C480.74 293.6 471.47 302.87 471.47 314.3C471.47 325.73 480.74 335 492.18 335C503.61 335 512.88 325.73 512.88 314.3C512.88 302.87 503.61 293.6 492.18 293.6Z" />
									</g>
								</g>
								<g id="&lt;Group&gt;">
									<path id="&lt;Path&gt;" class="shp13" d="M549.04 432.47L276.71 432.47L276.71 261.92L549.04 261.92L549.04 432.47Z" />
									<g id="&lt;Group&gt;">
										<g id="&lt;Group&gt;">
											<path id="&lt;Path&gt;" class="shp5" d="M553.73 266.61L544.35 266.61L544.35 257.23L553.73 257.23L553.73 266.61Z" />
											<path id="&lt;Path&gt;" class="shp5" d="M281.4 266.61L272.02 266.61L272.02 257.23L281.4 257.23L281.4 266.61Z" />
										</g>
										<g id="&lt;Group&gt;">
											<path id="&lt;Path&gt;" class="shp5" d="M553.73 437.16L544.35 437.16L544.35 427.77L553.73 427.77L553.73 437.16Z" />
											<path id="&lt;Path&gt;" class="shp5" d="M281.4 437.16L272.02 437.16L272.02 427.77L281.4 427.77L281.4 437.16Z" />
										</g>
									</g>
								</g>
							</g>
						</g>
					</g>
				</g>
				<g id="&lt;Group&gt;">
					<path id="&lt;Path&gt;" class="shp13" d="M958.55 392.07L779 392.07L779 212.53L958.55 212.53L958.55 392.07Z" />
					<g id="&lt;Group&gt;">
						<path id="&lt;Path&gt;" class="shp19" d="M942.53 376.05L795.02 376.05L795.02 228.55L942.53 228.55L942.53 376.05Z" />
						<g id="&lt;Group&gt;">
							<path id="&lt;Path&gt;" class="shp5" d="M913.84 302.3C913.84 327.19 893.66 347.37 868.77 347.37C843.88 347.37 823.7 327.19 823.7 302.3C823.7 277.41 843.88 257.23 868.77 257.23C893.66 257.23 913.84 277.41 913.84 302.3Z" />
							<path id="&lt;Path&gt;" class="shp8" d="M859 274.51L859 330.09L894.45 302.3L859 274.51Z" />
						</g>
					</g>
				</g>
				<g id="&lt;Group&gt;">
					<path id="&lt;Path&gt;" class="shp4" d="M705.82 127.75C708.2 149.15 726.32 165.8 748.36 165.8L969.63 165.8C991.66 165.8 1009.79 149.15 1012.17 127.75L705.82 127.75Z" />
					<g id="&lt;Group&gt;">
						<path id="&lt;Path&gt;" class="shp20" d="M955.76 152.45L734.48 152.45C710.84 152.45 691.67 133.28 691.67 109.64L691.67 109.62C691.67 85.98 710.84 66.81 734.48 66.81L955.76 66.81C979.4 66.81 998.57 85.98 998.57 109.62L998.57 109.64C998.57 133.28 979.4 152.45 955.76 152.45Z" />
						<g id="&lt;Group&gt;">
							<path id="&lt;Path&gt;" class="shp12" d="M952.2 136.91L737.19 136.91C722.13 136.91 709.91 124.7 709.91 109.63L709.91 109.63C709.91 94.56 722.13 82.35 737.19 82.35L952.2 82.35C967.27 82.35 979.49 94.56 979.49 109.63L979.49 109.63C979.49 124.7 967.27 136.91 952.2 136.91Z" />
							<path id="&lt;Compound Path&gt;" fill-rule="evenodd" class="shp11" d="M761.92 122.38C761.95 123.2 761.66 123.98 761.11 124.59C760.54 125.21 759.72 125.57 758.86 125.57C758.08 125.57 757.35 125.28 756.78 124.76L747.47 116.17C745.48 117.46 743.22 118.14 740.88 118.14C734.14 118.14 728.65 112.66 728.65 105.92C728.65 99.17 734.14 93.69 740.88 93.69C747.62 93.69 753.11 99.17 753.11 105.92C753.11 107.93 752.6 109.91 751.64 111.69L760.93 120.26C761.53 120.81 761.88 121.57 761.92 122.38ZM740.88 98.73C736.92 98.73 733.7 101.96 733.7 105.92C733.7 109.88 736.92 113.1 740.88 113.1C744.84 113.1 748.06 109.88 748.06 105.92C748.06 101.96 744.84 98.73 740.88 98.73Z" />
						</g>
					</g>
				</g>
				<g id="&lt;Group&gt;">
					<path id="&lt;Path&gt;" class="shp4" d="M1040.32 492.38L829.4 492.38C824.97 492.38 821.39 495.96 821.39 500.39L821.39 625.46C821.39 629.88 824.97 633.47 829.4 633.47L1040.32 633.47L1040.32 492.38Z" />
					<g id="&lt;Group&gt;">
						<g id="&lt;Group&gt;">
							<g id="&lt;Group&gt;">
								<g id="&lt;Group&gt;">
									<path id="&lt;Path&gt;" class="shp13" d="M1097.39 609.35L1097.39 613.36L1093.39 613.36" />
									<path id="&lt;Path&gt;" class="shp13" d="M1085.48 613.36L788.96 613.36" />
									<path id="&lt;Path&gt;" class="shp13" d="M785.01 613.36L781 613.36L781 609.35" />
									<path id="&lt;Path&gt;" class="shp13" d="M781 601.68L781 452.07" />
									<path id="&lt;Path&gt;" class="shp13" d="M781 448.24L781 444.23L785.01 444.23" />
									<path id="&lt;Path&gt;" class="shp13" d="M792.91 444.23L1089.43 444.23" />
									<path id="&lt;Path&gt;" class="shp13" d="M1093.39 444.23L1097.39 444.23L1097.39 448.24" />
									<path id="&lt;Path&gt;" class="shp13" d="M1097.39 455.91L1097.39 605.52" />
								</g>
							</g>
							<g id="&lt;Group&gt;">
								<g id="&lt;Group&gt;">
									<path id="&lt;Path&gt;" class="shp20" d="M1102.08 448.92L1092.7 448.92L1092.7 439.54L1102.08 439.54L1102.08 448.92Z" />
									<path id="&lt;Path&gt;" class="shp20" d="M785.69 448.92L776.31 448.92L776.31 439.54L785.69 439.54L785.69 448.92Z" />
								</g>
								<g id="&lt;Group&gt;">
									<path id="&lt;Path&gt;" class="shp20" d="M1102.08 618.05L1092.7 618.05L1092.7 608.67L1102.08 608.67L1102.08 618.05Z" />
									<path id="&lt;Path&gt;" class="shp20" d="M785.69 618.05L776.31 618.05L776.31 608.67L785.69 608.67L785.69 618.05Z" />
								</g>
							</g>
						</g>
						<g id="&lt;Group&gt;">
							<path id="&lt;Path&gt;" class="shp20" d="M1075.36 599.34L803.03 599.34C798.61 599.34 795.02 595.75 795.02 591.33L795.02 466.26C795.02 461.84 798.61 458.25 803.03 458.25L1075.36 458.25C1079.79 458.25 1083.37 461.84 1083.37 466.26L1083.37 591.33C1083.37 595.75 1079.79 599.34 1075.36 599.34Z" />
							<g id="&lt;Group&gt;">
								<g id="&lt;Group&gt;">
									<g id="&lt;Group&gt;">
										<path id="&lt;Path&gt;" class="shp12" d="M991.24 497.02L902.15 497.02L902.15 479.59L991.24 479.59L991.24 497.02Z" />
										<path id="&lt;Path&gt;" class="shp12" d="M1015.74 525.7L902.15 525.7L902.15 508.27L1015.74 508.27L1015.74 525.7Z" />
										<path id="&lt;Path&gt;" class="shp21" d="M1073.85 525.7L1025.56 525.7L1025.56 508.27L1073.85 508.27L1073.85 525.7Z" />
										<path id="&lt;Path&gt;" class="shp12" d="M998.01 497.02L1022.83 497.02L1022.83 479.59L998.01 479.59L998.01 497.02Z" />
										<path id="&lt;Path&gt;" class="shp12" d="M1028.78 497.02L1067.52 497.02L1067.52 479.59L1028.78 479.59L1028.78 497.02Z" />
									</g>
									<g id="&lt;Group&gt;">
										<path id="&lt;Path&gt;" class="shp12" d="M991.24 554.4L902.15 554.4L902.15 536.97L991.24 536.97L991.24 554.4Z" />
										<path id="&lt;Path&gt;" class="shp12" d="M902.15 565.65L902.15 583.08L1073.85 583.08L1073.85 565.65L902.15 565.65Z" />
										<path id="&lt;Path&gt;" class="shp8" d="M998.01 554.4L1022.83 554.4L1022.83 536.97L998.01 536.97L998.01 554.4Z" />
										<path id="&lt;Path&gt;" class="shp12" d="M1028.78 554.4L1067.52 554.4L1067.52 536.97L1028.78 536.97L1028.78 554.4Z" />
									</g>
								</g>
								<g id="&lt;Group&gt;">
									<path id="&lt;Path&gt;" class="shp5" d="M848.82 482.95C833.05 482.95 820.26 495.73 820.26 511.51L820.26 520.51L829.34 520.51L829.34 510.6C829.34 499.84 838.07 491.12 848.82 491.12C859.58 491.12 868.3 499.84 868.3 510.6L868.3 520.51L877.38 520.51L877.38 511.51C877.38 495.73 864.6 482.95 848.82 482.95Z" />
									<path id="&lt;Compound Path&gt;" fill-rule="evenodd" class="shp22" d="M880.95 524.29L880.95 570.86C880.95 572.95 879.26 574.64 877.17 574.64L820.48 574.64C818.39 574.64 816.69 572.95 816.69 570.86L816.69 524.29C816.69 522.2 818.39 520.51 820.48 520.51L877.17 520.51C879.26 520.51 880.95 522.2 880.95 524.29ZM852.02 548.24C853.63 547.19 854.7 545.38 854.7 543.32C854.7 540.08 852.07 537.45 848.82 537.45C845.58 537.45 842.95 540.08 842.95 543.32C842.95 545.38 844.02 547.19 845.63 548.24L844.51 557.7L853.13 557.7L852.02 548.24Z" />
								</g>
							</g>
						</g>
					</g>
				</g>
				<g id="&lt;Group&gt;">
					<path id="&lt;Compound Path&gt;" fill-rule="evenodd" class="shp21" d="M942.53 731.12C942.53 762.62 905.04 788.38 857.68 790.32L821.39 826.62L821.39 786.99C786.37 778.79 761.31 756.87 761.31 731.12C761.31 698.35 801.87 671.78 851.92 671.78C901.96 671.78 942.53 698.35 942.53 731.12ZM824.77 731.12C824.77 724.18 819.14 718.55 812.2 718.55C805.26 718.55 799.64 724.18 799.64 731.12C799.64 738.06 805.26 743.68 812.2 743.68C819.14 743.68 824.77 738.06 824.77 731.12ZM864.48 731.12C864.48 724.18 858.86 718.55 851.92 718.55C844.98 718.55 839.35 724.18 839.35 731.12C839.35 738.06 844.98 743.68 851.92 743.68C858.86 743.68 864.48 738.06 864.48 731.12ZM904.19 731.12C904.19 724.18 898.57 718.55 891.63 718.55C884.69 718.55 879.07 724.18 879.07 731.12C879.07 738.06 884.69 743.68 891.63 743.68C898.57 743.68 904.19 738.06 904.19 731.12Z" />
					<g id="&lt;Group&gt;">
						<g id="&lt;Group&gt;">
							<g id="&lt;Group&gt;">
								<path id="&lt;Compound Path&gt;" fill-rule="evenodd" class="shp10" d="M498.68 54.91L498.68 54.91C498.41 55.66 498.1 56.39 497.77 57.11L497.78 57.09L503.55 65.77L492.33 76.99L483.65 71.23L483.66 71.21C482.94 71.54 482.21 71.85 481.47 72.13L481.47 72.13L479.41 82.35L463.54 82.35L461.48 72.13L461.48 72.13C460.73 71.85 460 71.54 459.28 71.21L459.3 71.23L450.62 76.99L439.4 65.77L445.16 57.09L445.18 57.11C444.85 56.39 444.54 55.66 444.26 54.91L444.26 54.91L434.04 52.85L434.04 36.98L444.26 34.92L444.26 34.93C444.54 34.18 444.85 33.45 445.18 32.73L445.16 32.74L439.4 24.06L450.62 12.84L459.3 18.61L459.28 18.63C460 18.29 460.73 17.98 461.48 17.71L461.48 17.71L463.54 7.49L479.41 7.49L481.47 17.71L481.47 17.71C482.21 17.98 482.94 18.29 483.66 18.63L483.65 18.61L492.33 12.84L503.55 24.06L497.78 32.74L497.77 32.73C498.1 33.45 498.41 34.18 498.68 34.93L498.68 34.92L508.9 36.98L508.9 52.85L498.68 54.91ZM486.3 44.92C486.3 36.73 479.66 30.09 471.47 30.09C463.28 30.09 456.64 36.73 456.64 44.92C456.64 53.11 463.28 59.75 471.47 59.75C479.66 59.75 486.3 53.11 486.3 44.92Z" />
							</g>
						</g>
						<g id="&lt;Group&gt;">
							<g id="&lt;Group&gt;" style="mix-blend-mode: multiply">
								<g id="&lt;Group&gt;">
									<path id="&lt;Path&gt;" class="shp23" d="M294.25 127.75L315.68 149.19L332.6 137.95L332.57 137.92C333.96 138.56 335.39 139.17 336.85 139.71L336.84 139.71L340.86 159.62L371.78 159.62L375.8 139.71L375.8 139.71C377.25 139.17 378.68 138.56 380.08 137.92L380.05 137.95L396.96 149.19L418.39 127.75L294.25 127.75Z" />
								</g>
							</g>
							<g id="&lt;Group&gt;">
								<g id="&lt;Group&gt;">
									<path id="&lt;Compound Path&gt;" fill-rule="evenodd" class="shp7" d="M394.41 94.14L394.41 94.14C393.87 95.59 393.27 97.02 392.62 98.42L392.65 98.39L403.89 115.3L382.02 137.17L365.11 125.93L365.13 125.9C363.74 126.55 362.31 127.15 360.86 127.69L360.86 127.69L356.84 147.6L325.92 147.6L321.9 127.69L321.9 127.69C320.45 127.15 319.02 126.55 317.62 125.9L317.65 125.93L300.74 137.17L278.87 115.3L290.11 98.39L290.14 98.42C289.49 97.02 288.89 95.59 288.35 94.14L288.35 94.14L268.44 90.12L268.44 59.2L288.35 55.18L288.35 55.19C288.89 53.73 289.49 52.3 290.14 50.91L290.11 50.94L278.87 34.02L300.74 12.15L317.65 23.39L317.62 23.42C319.02 22.77 320.45 22.17 321.9 21.63L321.9 21.63L325.92 1.72L356.84 1.72L360.86 21.63L360.86 21.63C362.31 22.17 363.74 22.77 365.13 23.42L365.11 23.39L382.02 12.15L403.89 34.02L392.65 50.94L392.62 50.91C393.27 52.3 393.87 53.73 394.41 55.19L394.41 55.18L414.32 59.2L414.32 90.12L394.41 94.14ZM370.28 74.66C370.28 58.7 357.34 45.76 341.38 45.76C325.42 45.76 312.48 58.7 312.48 74.66C312.48 90.62 325.42 103.56 341.38 103.56C357.34 103.56 370.28 90.62 370.28 74.66Z" />
								</g>
							</g>
						</g>
					</g>
					<g id="&lt;Group&gt;">
						<path id="&lt;Path&gt;" class="shp11" d="M1188 285.23C1188 332.68 1149.53 371.15 1102.08 371.15C1054.63 371.15 1016.16 332.68 1016.16 285.23C1016.16 237.78 1054.63 199.31 1102.08 199.31C1149.53 199.31 1188 237.78 1188 285.23Z" />
						<path id="&lt;Path&gt;" class="shp10" d="M1117.05 218.42L1117.05 267.91L1102.08 275.82L1087.11 267.91L1087.11 218.42C1069.37 224.61 1056.63 241.49 1056.63 261.35C1056.63 280.73 1068.76 297.27 1085.84 303.8L1085.84 357.54C1091.08 358.71 1096.5 359.37 1102.08 359.37C1107.67 359.37 1113.09 358.71 1118.32 357.54L1118.32 303.8C1135.4 297.27 1147.54 280.73 1147.54 261.35C1147.54 241.49 1134.8 224.61 1117.05 218.42Z" />
					</g>
					<g id="&lt;Group&gt;">
						<g id="&lt;Group&gt;">
							<path id="&lt;Path&gt;" class="shp4" d="M307.99 533.07L183.92 533.07L183.92 673.36L307.99 673.36C312.41 673.36 316 670.96 316 667.99L316 538.44C316 535.47 312.41 533.07 307.99 533.07Z" />
							<g id="&lt;Group&gt;">
								<path id="&lt;Path&gt;" class="shp20" d="M292.3 652.29L15.56 652.29C11.98 652.29 9.08 649.4 9.08 645.82L9.08 522.11C9.08 518.54 11.98 515.64 15.56 515.64L292.3 515.64C295.88 515.64 298.77 518.54 298.77 522.11L298.77 645.82C298.77 649.4 295.88 652.29 292.3 652.29Z" />
								<g id="&lt;Group&gt;">
									<g id="&lt;Group&gt;">
										<path id="&lt;Path&gt;" class="shp12" d="M149.67 614.07L275.39 614.07L275.39 631.65L149.67 631.65L149.67 614.07Z" />
										<path id="&lt;Path&gt;" class="shp12" d="M149.67 587.37L275.39 587.37L275.39 604.95L149.67 604.95L149.67 587.37Z" />
										<path id="&lt;Path&gt;" class="shp12" d="M149.67 560.68L226.38 560.68L226.38 578.26L149.67 578.26L149.67 560.68Z" />
										<path id="&lt;Path&gt;" class="shp7" d="M240.01 560.68L275.39 560.68L275.39 578.26L240.01 578.26L240.01 560.68Z" />
										<path id="&lt;Path&gt;" class="shp12" d="M149.67 533.99L275.39 533.99L275.39 551.57L149.67 551.57L149.67 533.99Z" />
									</g>
									<g id="&lt;Group&gt;">
										<g id="&lt;Group&gt;">
											<path id="&lt;Path&gt;" class="shp10" d="M131.89 632.11L32.46 632.11L32.46 532.68L131.89 532.68L131.89 632.11Z" />
											<g id="&lt;Group&gt;">
												<path id="&lt;Compound Path&gt;" class="shp14" d="M49.83 583.45L49.83 578.62L69.47 570.04L69.47 575L54.7 581.05L69.47 587.03L69.47 592.03L49.83 583.45Z" />
												<path id="&lt;Compound Path&gt;" class="shp14" d="M86.19 563.85L92.67 563.85L78.16 598.21L71.68 598.21L86.19 563.85Z" />
												<path id="&lt;Compound Path&gt;" class="shp14" d="M94.89 587.03L109.65 581.05L94.89 575L94.89 570.04L114.53 578.62L114.53 583.45L94.89 592.03L94.89 587.03Z" />
											</g>
										</g>
									</g>
								</g>
							</g>
						</g>
						<g id="&lt;Group&gt;">
							<path id="&lt;Path&gt;" class="shp4" d="M225.15 431.24L183.26 431.24L183.26 316.78L225.15 316.78L225.15 431.24Z" />
							<g id="&lt;Group&gt;">
								<path id="&lt;Path&gt;" class="shp17" d="M208.84 407.89L0.58 407.89L0.58 293.43L208.84 293.43L208.84 407.89Z" />
								<path id="&lt;Path&gt;" class="shp22" d="M104.71 407.89L208.84 407.89L104.71 336.2L0.58 407.89L104.71 407.89Z" />
								<path id="&lt;Path&gt;" class="shp24" d="M104.71 293.43L0.58 293.43L104.71 365.13L208.84 293.43L104.71 293.43Z" />
							</g>
						</g>
					</g>
				</g>
			</g>
		</g>
	</g>
</svg>