<svg id="Layer_1" data-name="Layer 1" xmlns="http://www.w3.org/2000/svg" viewBox="0 0 122.88 70.51"><defs><style>.cls-1{fill-rule:evenodd;}</style></defs><title>product-list</title><path class="cls-1" d="M2.54,65.44H15.13a2.19,2.19,0,0,1-1.63-2.1V2.17A2.18,2.18,0,0,1,15.67,0h91a2.18,2.18,0,0,1,2.17,2.17V63.33a2.17,2.17,0,0,1-1.63,2.1h13.16A2.54,2.54,0,0,1,122.88,68h0a2.54,2.54,0,0,1-2.54,2.54H2.54A2.54,2.54,0,0,1,0,68H0a2.54,2.54,0,0,1,2.54-2.53ZM27.79,5.21a1.73,1.73,0,1,1-1.72,1.73,1.73,1.73,0,0,1,1.72-1.73Zm5.84,0a1.73,1.73,0,1,1-1.72,1.73,1.73,1.73,0,0,1,1.72-1.73ZM22,5.21a1.73,1.73,0,1,1-1.72,1.73A1.74,1.74,0,0,1,22,5.21ZM52.66,18.7a1.72,1.72,0,0,1,0-3.43h8.71a1.72,1.72,0,1,1,0,3.43ZM83,56.58a1.72,1.72,0,0,1,0-3.44h8.71a1.72,1.72,0,0,1,0,3.44Zm-25.87,0a1.72,1.72,0,0,1,0-3.44h8.7a1.72,1.72,0,0,1,0,3.44Zm-25.88,0a1.72,1.72,0,0,1,0-3.44h8.71a1.72,1.72,0,0,1,0,3.44ZM78.66,25.63H96A1.33,1.33,0,0,1,97.3,27V48.24A1.34,1.34,0,0,1,96,49.57H78.66a1.33,1.33,0,0,1-1.32-1.33V27a1.32,1.32,0,0,1,1.32-1.32Zm16,2.64H80V46.92H94.65V28.27ZM52.78,25.63H70.1A1.32,1.32,0,0,1,71.42,27V48.24a1.33,1.33,0,0,1-1.32,1.33H52.78a1.33,1.33,0,0,1-1.32-1.33V27a1.32,1.32,0,0,1,1.32-1.32Zm16,2.64H54.11V46.92H68.77V28.27ZM26.91,25.63H44.22A1.32,1.32,0,0,1,45.54,27V48.24a1.33,1.33,0,0,1-1.32,1.33H26.91a1.34,1.34,0,0,1-1.33-1.33V27a1.33,1.33,0,0,1,1.33-1.32Zm16,2.64H28.23V46.92H42.9V28.27ZM89.05,18.7a1.72,1.72,0,1,1,0-3.43H96a1.72,1.72,0,1,1,0,3.43ZM72,18.7a1.72,1.72,0,1,1,0-3.43h6.91a1.72,1.72,0,1,1,0,3.43ZM17.21,11.16H105.4V62.72H17.21V11.16ZM57.87,66.39H65a1.22,1.22,0,0,1,1.22,1.22h0A1.22,1.22,0,0,1,65,68.83H57.87a1.22,1.22,0,0,1-1.22-1.22h0a1.22,1.22,0,0,1,1.22-1.22Z"/></svg>